<svg width="16" height="16" viewBox="0 0 16 16" fill="none" xmlns="http://www.w3.org/2000/svg">
<path fill-rule="evenodd" clip-rule="evenodd" d="M2.45052 6.76219H12.0405C12.1605 6.76219 12.2705 6.81219 12.3605 6.90219L13.8805 8.46219C14.1605 8.75219 13.9605 9.24219 13.5605 9.24219H3.97052C3.85052 9.24219 3.74052 9.19219 3.65052 9.10219L2.13052 7.54219C1.85052 7.25219 2.05052 6.76219 2.45052 6.76219ZM2.13052 4.69219L3.65052 3.13219C3.73052 3.04219 3.85052 2.99219 3.97052 2.99219H13.5505C13.9505 2.99219 14.1505 3.48219 13.8705 3.77219L12.3605 5.33219C12.2805 5.42219 12.1605 5.47219 12.0405 5.47219H2.45052C2.05052 5.47219 1.85052 4.98219 2.13052 4.69219ZM13.8705 11.3022L12.3505 12.8622C12.2605 12.9522 12.1505 13.0022 12.0305 13.0022H2.45052C2.05052 13.0022 1.85052 12.5122 2.13052 12.2222L3.65052 10.6622C3.73052 10.5722 3.85052 10.5222 3.97052 10.5222H13.5505C13.9505 10.5222 14.1505 11.0122 13.8705 11.3022Z" fill="#FFFFFF"/>
</svg>
