<?xml version="1.0" encoding="UTF-8"?>
<!-- Generator: https://ezgif.com/png-to-svg -->
<svg version="1.1" xmlns="http://www.w3.org/2000/svg" width="2315" height="2202">
<path d="M0 0 C1.23 0.3 1.23 0.3 2.49 0.6 C32.83 8.11 60.21 22.66 82.57 44.6 C83.92 45.92 85.3 47.22 86.67 48.52 C108.47 69.47 123.32 98.03 130.75 127.12 C130.95 127.9 131.15 128.67 131.35 129.47 C134.58 142.77 135.41 155.89 135.38 169.5 C135.37 170.75 135.37 170.75 135.37 172.03 C135.33 185.39 134.44 198.04 131 211 C130.68 212.26 130.68 212.26 130.35 213.55 C119.07 257.03 90.8 295.61 52.14 318.71 C10.86 342.33 -36.6 349.4 -82.76 337.48 C-107.38 330.75 -130.8 318.9 -150 302 C-151.29 300.87 -151.29 300.87 -152.61 299.72 C-155.11 297.51 -157.56 295.27 -160 293 C-160.67 292.39 -161.33 291.78 -162.02 291.15 C-193.45 261.12 -210.26 215.97 -211.28 173.13 C-211.81 123.24 -192.24 79.64 -158 44 C-155.44 41.52 -152.78 39.24 -150 37 C-148.55 35.83 -148.55 35.83 -147.07 34.63 C-125.88 17.78 -101.3 6.23 -75 0 C-74.32 -0.17 -73.64 -0.33 -72.94 -0.5 C-50.51 -5.77 -22.34 -5.57 0 0 Z " fill="#9B53C7" transform="translate(1195,931)"/>
<path d="M0 0 C3.85 1.59 6.29 4.04 9.21 6.97 C9.97 7.72 9.97 7.72 10.74 8.49 C12.41 10.16 14.08 11.83 15.74 13.51 C16.9 14.67 18.07 15.84 19.24 17.01 C21.68 19.45 24.12 21.9 26.56 24.36 C29.67 27.48 32.78 30.6 35.9 33.72 C38.31 36.13 40.72 38.54 43.13 40.95 C44.27 42.1 45.42 43.25 46.57 44.4 C56.61 54.46 56.61 54.46 60.53 59.04 C64.75 63.96 69.37 68.48 73.97 73.05 C75.63 74.69 77.29 76.34 78.94 77.99 C82.46 81.5 85.98 85 89.5 88.5 C93.58 92.56 97.67 96.62 101.75 100.69 C103.37 102.3 104.99 103.91 106.61 105.52 C111.32 110.21 115.89 114.94 120.21 119.98 C124.05 124.31 128.21 128.33 132.31 132.41 C133.29 133.38 134.26 134.36 135.24 135.33 C137.78 137.87 140.33 140.41 142.88 142.95 C145.49 145.55 148.09 148.15 150.7 150.75 C155.8 155.84 160.9 160.92 166 166 C164.6 169.17 162.95 171.3 160.51 173.74 C159.78 174.47 159.05 175.21 158.3 175.96 C157.49 176.76 156.69 177.56 155.86 178.38 C155.01 179.23 154.16 180.08 153.28 180.96 C150.92 183.33 148.55 185.69 146.18 188.05 C143.63 190.59 141.08 193.15 138.53 195.7 C134.11 200.12 129.69 204.53 125.27 208.94 C118.87 215.32 112.48 221.71 106.09 228.1 C95.73 238.46 85.36 248.81 74.98 259.17 C64.9 269.23 54.83 279.29 44.76 289.35 C44.14 289.97 43.52 290.59 42.88 291.23 C39.76 294.34 36.65 297.46 33.53 300.57 C7.7 326.38 -18.15 352.19 -44 378 C-48.87 373.94 -53.45 369.69 -57.92 365.2 C-58.58 364.55 -59.23 363.89 -59.91 363.21 C-62.11 361.02 -64.29 358.83 -66.48 356.63 C-68.06 355.05 -69.64 353.48 -71.21 351.9 C-75.48 347.63 -79.75 343.36 -84.02 339.08 C-88.48 334.61 -92.95 330.15 -97.42 325.68 C-104.91 318.18 -112.4 310.69 -119.89 303.19 C-127.6 295.47 -135.31 287.75 -143.03 280.03 C-143.5 279.55 -143.98 279.08 -144.47 278.59 C-146.86 276.2 -149.24 273.81 -151.63 271.42 C-171.43 251.61 -191.21 231.81 -211 212 C-207.48 208.42 -204 205.43 -199.88 202.56 C-198.63 201.69 -197.38 200.81 -196.14 199.93 C-195.14 199.23 -195.14 199.23 -194.12 198.51 C-181.98 189.89 -170.18 180.91 -158.72 171.42 C-156.31 169.43 -153.87 167.47 -151.44 165.5 C-141.37 157.25 -131.6 148.66 -122.05 139.82 C-120.17 138.08 -118.28 136.35 -116.38 134.64 C-108.28 127.31 -100.52 119.67 -92.81 111.94 C-90.68 109.8 -88.54 107.67 -86.4 105.54 C-85.02 104.16 -83.64 102.78 -82.26 101.39 C-81.64 100.77 -81.01 100.15 -80.36 99.5 C-76.6 95.72 -73.03 91.83 -69.55 87.78 C-67.3 85.19 -64.96 82.7 -62.62 80.19 C-58.33 75.54 -54.26 70.76 -50.3 65.82 C-48.27 63.34 -46.21 60.9 -44.12 58.47 C-37.7 50.99 -31.7 43.22 -25.77 35.35 C-23.9 32.87 -22.03 30.4 -20.16 27.93 C-13.23 18.76 -6.42 9.54 0 0 Z " fill="#7A55C8" transform="translate(1822,1556)"/>
<path d="M0 0 C3.55 3.48 6.49 6.91 9.31 11 C13.77 17.37 18.41 23.57 23.12 29.75 C23.78 30.61 24.44 31.47 25.11 32.36 C29.66 38.31 34.3 44.17 39 50 C39.77 50.95 40.54 51.91 41.33 52.89 C49.67 63.14 58.23 73.18 67.21 82.88 C69.69 85.56 72.12 88.28 74.5 91.06 C78.16 95.3 82.15 99.19 86.16 103.09 C88.34 105.26 90.35 107.54 92.35 109.88 C95.96 114.04 99.88 117.78 103.94 121.5 C105.35 122.81 106.77 124.12 108.18 125.44 C108.85 126.05 109.51 126.67 110.2 127.31 C112.35 129.33 114.43 131.4 116.5 133.5 C119.5 136.55 122.64 139.37 125.88 142.16 C128.22 144.2 130.52 146.28 132.81 148.38 C137.13 152.27 141.57 155.97 146.09 159.62 C148.67 161.73 151.21 163.87 153.74 166.04 C160.09 171.47 166.59 176.66 173.26 181.69 C175.07 183.05 176.87 184.43 178.67 185.8 C189.24 193.83 200.09 201.45 211 209 C210.42 212.16 209.58 213.79 207.32 216.05 C206.74 216.63 206.17 217.21 205.58 217.81 C204.63 218.75 204.63 218.75 203.65 219.71 C202.98 220.38 202.31 221.05 201.62 221.75 C199.37 224.01 197.1 226.26 194.83 228.51 C193.22 230.12 191.6 231.74 189.98 233.36 C185.59 237.75 181.19 242.14 176.78 246.52 C172.18 251.1 167.59 255.69 163 260.28 C155.29 267.98 147.58 275.68 139.86 283.37 C131.91 291.29 123.96 299.22 116.01 307.15 C115.52 307.64 115.03 308.13 114.53 308.63 C112.07 311.08 109.62 313.54 107.16 315.99 C86.78 336.34 66.4 356.67 46 377 C40.52 372.43 35.45 367.58 30.41 362.53 C29.57 361.7 28.74 360.86 27.87 359.99 C25.56 357.68 23.25 355.37 20.94 353.06 C18.44 350.56 15.95 348.06 13.45 345.56 C9.12 341.24 4.8 336.91 0.48 332.59 C-5.77 326.33 -12.02 320.08 -18.27 313.83 C-28.41 303.68 -38.55 293.54 -48.69 283.39 C-58.53 273.53 -68.38 263.68 -78.23 253.83 C-78.83 253.22 -79.44 252.61 -80.07 251.99 C-83.12 248.94 -86.16 245.89 -89.21 242.84 C-114.48 217.56 -139.74 192.28 -165 167 C-163.72 164.19 -162.39 162.14 -160.21 159.96 C-159.64 159.39 -159.06 158.81 -158.48 158.22 C-157.85 157.59 -157.22 156.97 -156.57 156.33 C-155.9 155.66 -155.24 154.99 -154.55 154.3 C-152.31 152.06 -150.06 149.82 -147.81 147.58 C-146.2 145.98 -144.6 144.37 -142.99 142.76 C-138.63 138.4 -134.26 134.04 -129.88 129.68 C-125.32 125.13 -120.76 120.57 -116.19 116.01 C-108.53 108.35 -100.87 100.7 -93.21 93.06 C-85.31 85.18 -77.42 77.3 -69.53 69.42 C-69.04 68.94 -68.56 68.45 -68.06 67.95 C-65.62 65.51 -63.18 63.07 -60.74 60.64 C-40.5 40.42 -20.25 20.21 0 0 Z " fill="#7A55C8" transform="translate(492,1557)"/>
<path d="M0 0 C77.22 0 154.44 0 234 0 C234 99 234 198 234 300 C156.45 300 78.9 300 -1 300 C0.98 287.79 2.96 275.58 5 263 C5.98 255.77 6.93 248.56 7.75 241.31 C7.96 239.54 8.16 237.77 8.37 236 C9.93 222.36 11.26 208.71 12 195 C12.04 194.25 12.08 193.51 12.13 192.74 C12.92 178.11 13.2 163.52 13.19 148.88 C13.19 147.79 13.19 146.71 13.19 145.59 C13.12 101.32 8.91 57.71 1.93 14.01 C1.19 9.34 0.59 4.69 0 0 Z " fill="#7955C8" transform="translate(1950,953)"/>
<path d="M0 0 C76.89 0 153.78 0 233 0 C232.4 7.14 231.8 14.08 230.7 21.12 C230.44 22.8 230.19 24.48 229.93 26.16 C229.8 27.02 229.67 27.88 229.53 28.77 C223.64 67.45 220.58 106.1 220.68 145.21 C220.69 147.42 220.69 149.63 220.69 151.84 C220.73 176 221.54 199.96 224 224 C224.15 225.48 224.29 226.95 224.44 228.43 C226.27 246.78 228.97 264.96 232.07 283.14 C232.2 283.89 232.33 284.65 232.46 285.43 C232.7 286.84 232.94 288.25 233.19 289.66 C233.79 293.22 234 296.35 234 300 C156.78 300 79.56 300 0 300 C0 201 0 102 0 0 Z " fill="#7955C8" transform="translate(131,953)"/>
<path d="M0 0 C2.52 1.02 3.89 2.29 5.81 4.21 C6.54 4.94 7.28 5.66 8.03 6.41 C8.83 7.22 9.63 8.03 10.45 8.86 C11.3 9.71 12.15 10.56 13.03 11.43 C15.4 13.8 17.76 16.17 20.12 18.54 C22.66 21.1 25.22 23.65 27.77 26.2 C32.19 30.61 36.6 35.04 41.01 39.47 C47.39 45.87 53.78 52.26 60.17 58.65 C70.53 69.02 80.89 79.4 91.24 89.78 C101.3 99.87 111.36 109.95 121.42 120.03 C122.04 120.65 122.66 121.27 123.3 121.91 C126.41 125.03 129.53 128.14 132.64 131.26 C158.46 157.11 184.27 182.97 210.07 208.84 C208.44 212.28 206.63 214.52 203.91 217.21 C203.06 218.06 202.2 218.92 201.31 219.8 C200.38 220.71 199.45 221.63 198.5 222.57 C197.53 223.54 196.56 224.5 195.6 225.46 C193.05 227.99 190.5 230.52 187.94 233.05 C183.87 237.07 179.81 241.1 175.75 245.14 C174.34 246.54 172.93 247.93 171.52 249.33 C167.77 253.05 164.08 256.76 160.64 260.77 C156.44 265.66 151.86 270.16 147.28 274.7 C145.66 276.31 144.03 277.93 142.41 279.55 C138.39 283.56 134.35 287.57 130.32 291.58 C126.9 294.98 123.48 298.38 120.07 301.78 C118.48 303.36 116.9 304.94 115.31 306.52 C111.28 310.52 107.28 314.51 103.58 318.83 C99.35 323.77 94.72 328.31 90.1 332.88 C88.45 334.52 86.8 336.16 85.16 337.8 C81.67 341.28 78.18 344.75 74.69 348.22 C70.63 352.26 66.56 356.3 62.5 360.35 C60.88 361.97 59.25 363.58 57.63 365.2 C56.64 366.18 55.65 367.17 54.66 368.15 C53.8 369.01 52.93 369.87 52.04 370.76 C50.03 372.68 50.03 372.68 49.07 374.84 C46.58 374.47 45.36 374.16 43.64 372.27 C43.21 371.59 42.78 370.92 42.33 370.22 C41.83 369.46 41.32 368.7 40.81 367.91 C40.28 367.08 39.74 366.26 39.19 365.4 C33.1 356.2 26.52 347.51 19.66 338.86 C17.78 336.47 15.93 334.05 14.1 331.63 C9.49 325.56 4.67 319.74 -0.28 313.96 C-2.72 311.11 -5.08 308.2 -7.43 305.28 C-11.49 300.29 -15.78 295.56 -20.16 290.86 C-22.25 288.6 -24.29 286.3 -26.31 283.97 C-35.59 273.33 -45.47 263.21 -55.43 253.22 C-56.16 252.48 -56.89 251.75 -57.64 250.99 C-61.62 247.02 -65.7 243.24 -69.96 239.56 C-73.31 236.63 -76.52 233.54 -79.74 230.47 C-85.06 225.44 -90.45 220.63 -96.17 216.07 C-99.42 213.44 -102.58 210.71 -105.74 207.97 C-134.19 182.93 -134.19 182.93 -165.93 162.84 C-164.62 159.94 -163.21 157.87 -160.95 155.63 C-160.36 155.05 -159.78 154.46 -159.17 153.85 C-158.55 153.25 -157.94 152.65 -157.31 152.03 C-156.71 151.44 -156.12 150.85 -155.51 150.24 C-152.56 147.31 -149.56 144.5 -146.4 141.81 C-141.46 137.51 -136.86 132.88 -132.25 128.24 C-130.67 126.65 -129.09 125.06 -127.51 123.47 C-124.15 120.1 -120.79 116.72 -117.43 113.34 C-113.53 109.42 -109.64 105.5 -105.73 101.59 C-104.19 100.04 -102.65 98.48 -101.1 96.92 C-97.15 92.95 -93.2 89 -88.94 85.35 C-84.07 81.18 -79.59 76.61 -75.07 72.05 C-73.46 70.43 -71.84 68.8 -70.22 67.18 C-66.79 63.74 -63.36 60.29 -59.93 56.84 C-55.95 52.84 -51.97 48.84 -47.99 44.84 C-46.41 43.25 -44.83 41.67 -43.25 40.08 C-38.54 35.34 -33.77 30.73 -28.69 26.38 C-25.92 23.95 -23.37 21.31 -20.82 18.65 C-19.73 17.53 -18.63 16.41 -17.54 15.29 C-15.84 13.55 -14.15 11.81 -12.47 10.06 C-10.83 8.35 -9.17 6.66 -7.51 4.97 C-7.01 4.44 -6.51 3.91 -5.99 3.36 C-2.45 -0.2 -2.45 -0.2 0 0 Z " fill="#7955C8" transform="translate(1777.9300916194916,273.15988916158676)"/>
<path d="M0 0 C2.88 1.23 4.63 3.19 6.83 5.41 C7.31 5.89 7.78 6.36 8.27 6.85 C9.84 8.43 11.4 10.02 12.96 11.61 C14.06 12.71 15.15 13.81 16.25 14.91 C19.14 17.82 22.02 20.74 24.9 23.66 C29.49 28.31 34.1 32.94 38.7 37.58 C40.3 39.19 41.89 40.81 43.49 42.43 C48.13 47.12 52.81 51.67 57.83 55.96 C61.98 59.66 65.86 63.66 69.77 67.6 C71.39 69.23 73 70.85 74.62 72.47 C78.64 76.5 82.64 80.53 86.65 84.57 C90.05 87.99 93.45 91.4 96.86 94.82 C98.44 96.4 100.01 97.99 101.59 99.58 C106.21 104.23 110.88 108.73 115.86 112.99 C120.35 116.98 124.52 121.31 128.76 125.56 C129.78 126.58 130.8 127.61 131.82 128.63 C134.48 131.29 137.13 133.96 139.79 136.62 C142.51 139.35 145.23 142.08 147.95 144.81 C153.28 150.14 158.59 155.48 163.91 160.82 C162.77 164.23 162.19 164.57 159.29 166.46 C158.53 166.97 157.77 167.47 156.98 167.99 C156.16 168.53 155.33 169.07 154.48 169.63 C145.31 175.75 136.61 182.32 127.98 189.18 C126.04 190.72 124.09 192.24 122.13 193.76 C114.79 199.46 107.63 205.34 100.57 211.4 C98.87 212.86 97.16 214.31 95.44 215.75 C88.07 222.01 80.9 228.43 73.84 235.03 C72.36 236.41 70.86 237.77 69.36 239.12 C61.69 246.07 54.31 253.27 47 260.6 C45.09 262.52 43.17 264.43 41.25 266.34 C35.77 271.82 30.33 277.27 25.31 283.18 C23.13 285.74 20.83 288.17 18.54 290.63 C14.26 295.25 10.22 300.02 6.28 304.93 C4.12 307.56 1.91 310.14 -0.33 312.71 C-7.11 320.49 -13.38 328.6 -19.59 336.85 C-20.93 338.6 -22.27 340.35 -23.64 342.08 C-29.52 349.59 -34.99 357.31 -40.35 365.19 C-40.92 366.02 -41.5 366.85 -42.08 367.7 C-42.84 368.82 -42.84 368.82 -43.62 369.96 C-45.09 371.82 -45.09 371.82 -48.09 373.82 C-101.88 320.03 -155.67 266.24 -211.09 210.82 C-209.36 207.37 -208.24 205.72 -205.62 203.09 C-204.9 202.36 -204.17 201.63 -203.43 200.88 C-202.63 200.08 -201.84 199.29 -201.02 198.47 C-200.17 197.62 -199.33 196.77 -198.46 195.9 C-196.11 193.54 -193.76 191.19 -191.41 188.84 C-188.88 186.3 -186.35 183.76 -183.82 181.22 C-178.29 175.67 -172.76 170.12 -167.22 164.58 C-163.76 161.12 -160.31 157.66 -156.85 154.2 C-147.29 144.62 -137.73 135.04 -128.16 125.47 C-127.24 124.55 -127.24 124.55 -126.31 123.61 C-125.07 122.37 -123.82 121.13 -122.58 119.89 C-121.97 119.27 -121.35 118.66 -120.72 118.02 C-120.1 117.4 -119.48 116.79 -118.85 116.15 C-108.84 106.14 -98.84 96.12 -88.85 86.09 C-78.6 75.8 -68.34 65.52 -58.07 55.25 C-52.3 49.48 -46.54 43.71 -40.78 37.92 C-35.89 33 -30.98 28.09 -26.06 23.19 C-23.55 20.69 -21.05 18.18 -18.55 15.66 C-15.85 12.94 -13.13 10.23 -10.41 7.53 C-9.62 6.72 -8.83 5.92 -8.01 5.09 C-7.28 4.37 -6.56 3.65 -5.81 2.92 C-5.18 2.29 -4.55 1.66 -3.91 1.02 C-2.09 -0.18 -2.09 -0.18 0 0 Z " fill="#7955C8" transform="translate(538.0871263742447,273.1831300854683)"/>
<path d="M0 0 C12.87 1.98 25.74 3.96 39 6 C49.01 7.31 49.01 7.31 59.04 8.48 C61.54 8.75 64.04 9.05 66.54 9.34 C93.01 12.37 119.45 13.38 146.07 13.32 C148.36 13.31 150.64 13.31 152.93 13.31 C177.39 13.27 201.66 12.51 226 10 C227.46 9.85 228.93 9.71 230.39 9.56 C253.39 7.23 276.14 3.52 299 0 C299 76.56 299 153.12 299 232 C200.33 232 101.66 232 0 232 C0 155.44 0 78.88 0 0 Z " fill="#7B55C8" transform="translate(1008,1893)"/>
<path d="M0 0 C98.67 0 197.34 0 299 0 C299 76.23 299 152.46 299 231 C292.81 230.38 286.76 229.72 280.64 228.73 C279.06 228.48 277.47 228.23 275.88 227.98 C275.06 227.85 274.23 227.72 273.38 227.59 C212.41 218.08 150.56 215.06 89 220 C88.23 220.06 87.47 220.12 86.68 220.18 C63.73 222.03 41.04 225.01 18.32 228.71 C17.39 228.86 16.46 229.02 15.51 229.17 C13.77 229.46 12.03 229.74 10.29 230.03 C6.8 230.61 3.55 231 0 231 C0 154.77 0 78.54 0 0 Z " fill="#7855C8" transform="translate(1008,77)"/>
<path d="M0 0 C9.52 5.2 9.52 5.2 13.52 7.99 C14.66 8.79 14.66 8.79 15.84 9.6 C16.63 10.17 17.43 10.73 18.25 11.31 C19.1 11.91 19.95 12.51 20.83 13.13 C34.23 22.63 47.21 32.7 60 43 C60.94 43.76 61.88 44.51 62.86 45.29 C74.76 54.96 86.23 65.09 97.44 75.55 C98.95 76.95 100.47 78.34 102 79.71 C108.98 86.04 115.7 92.6 122.38 99.25 C123.22 100.09 124.06 100.93 124.93 101.79 C129.25 106.12 133.4 110.51 137.38 115.14 C139.96 118.11 142.68 120.95 145.38 123.81 C150.04 128.8 154.49 133.9 158.76 139.23 C160.81 141.77 162.91 144.25 165.03 146.73 C170.47 153.08 175.65 159.59 180.69 166.26 C182.05 168.07 183.43 169.87 184.8 171.67 C192.25 181.48 199.42 191.49 206.38 201.66 C207.5 203.27 208.63 204.87 209.78 206.46 C210.62 207.64 210.62 207.64 211.48 208.85 C211.99 209.55 212.49 210.25 213.02 210.98 C214 213 214 213 213.74 214.9 C210.97 222.71 201.67 229.53 195.96 235.27 C195.49 235.75 195.02 236.23 194.53 236.72 C192.03 239.24 189.52 241.76 187.01 244.28 C184.97 246.33 182.93 248.39 180.9 250.46 C170.24 261.28 159.86 271.78 147 280 C145.43 281.11 143.88 282.23 142.33 283.36 C141.65 283.85 140.98 284.34 140.29 284.84 C139.61 285.33 138.94 285.81 138.25 286.31 C136.71 287.42 135.18 288.53 133.64 289.64 C132.49 290.48 132.49 290.48 131.31 291.33 C126.8 294.59 122.28 297.85 117.76 301.12 C113.96 303.86 110.16 306.61 106.36 309.36 C103.34 311.54 100.32 313.72 97.3 315.9 C94.47 317.94 91.65 319.99 88.83 322.04 C87.55 322.96 86.28 323.89 85 324.81 C84.42 325.24 83.84 325.67 83.24 326.11 C79.23 329 79.23 329 77 329 C75.94 327.6 75.94 327.6 74.79 325.62 C74.35 324.9 73.92 324.17 73.47 323.41 C72.77 322.22 72.77 322.22 72.06 321 C66.72 312.07 61.01 303.49 55 295 C54.49 294.28 53.98 293.56 53.46 292.81 C45.73 281.84 37.6 271.3 29 261 C28.52 260.42 28.04 259.84 27.54 259.24 C21.74 252.25 15.76 245.46 9.59 238.81 C7.33 236.36 5.13 233.88 2.94 231.38 C-1.56 226.36 -6.3 221.59 -11.06 216.81 C-11.82 216.05 -12.57 215.29 -13.35 214.51 C-17.51 210.36 -21.75 206.38 -26.2 202.55 C-28.62 200.46 -30.96 198.29 -33.31 196.12 C-38.72 191.21 -44.28 186.54 -50 182 C-50.96 181.23 -50.96 181.23 -51.95 180.45 C-71.45 165.03 -91.5 150.52 -113 138 C-112.39 134.88 -111.4 132.85 -109.52 130.3 C-109 129.6 -108.48 128.89 -107.95 128.16 C-107.39 127.41 -106.83 126.65 -106.25 125.88 C-105.06 124.25 -103.86 122.62 -102.67 120.99 C-102.06 120.16 -101.45 119.33 -100.82 118.48 C-98.02 114.67 -95.26 110.83 -92.5 107 C-91.42 105.5 -90.33 104 -89.25 102.5 C-88.71 101.76 -88.18 101.01 -87.62 100.25 C-86 98 -84.38 95.75 -82.75 93.5 C-82.21 92.76 -81.68 92.01 -81.12 91.25 C-80.04 89.75 -78.96 88.26 -77.88 86.76 C-74.56 82.16 -71.24 77.55 -67.92 72.94 C-66.28 70.66 -64.63 68.39 -62.98 66.12 C-61.19 63.66 -59.43 61.19 -57.71 58.7 C-53.72 53.06 -49.49 48.44 -44.39 43.82 C-35.01 35.19 -26.05 26.16 -17.06 17.12 C-15.4 15.45 -13.73 13.78 -12.06 12.11 C-8.04 8.08 -4.02 4.04 0 0 Z " fill="#8B54C7" transform="translate(1559,486)"/>
<path d="M0 0 C4.73 3.99 9.34 8.09 13.86 12.31 C14.5 12.91 15.14 13.51 15.8 14.13 C23.01 20.91 30.09 27.83 37.11 34.81 C38.58 36.28 40.06 37.73 41.54 39.19 C50.76 48.23 58.86 57.24 66 68 C67.11 69.56 68.23 71.12 69.36 72.67 C69.85 73.35 70.34 74.02 70.84 74.71 C71.33 75.39 71.81 76.06 72.31 76.75 C73.42 78.29 74.53 79.82 75.64 81.36 C76.48 82.51 76.48 82.51 77.33 83.69 C80.59 88.2 83.85 92.72 87.12 97.24 C89.86 101.04 92.61 104.84 95.36 108.64 C101.93 117.74 108.49 126.85 115 136 C111.38 140.11 107 142.62 102.38 145.44 C92.57 151.52 83.26 158.13 74 165 C72.59 166.03 71.18 167.07 69.77 168.1 C62.28 173.63 55.05 179.36 48 185.43 C45.27 187.77 42.5 190.01 39.69 192.25 C27.19 202.48 15.86 214.05 4.44 225.44 C3.59 226.28 3.59 226.28 2.73 227.14 C-3.4 233.25 -9.41 239.39 -15 246 C-15.97 247.12 -16.95 248.24 -17.92 249.35 C-24.38 256.81 -30.62 264.4 -36.63 272.23 C-37.96 273.95 -39.31 275.67 -40.65 277.38 C-47.7 286.48 -54.12 295.99 -60.5 305.56 C-60.94 306.22 -61.38 306.88 -61.84 307.56 C-63.11 309.48 -64.39 311.4 -65.66 313.32 C-66.03 313.89 -66.41 314.46 -66.8 315.04 C-69.37 318.94 -71.72 322.93 -74 327 C-78.04 326.41 -80.86 324.18 -84.06 321.81 C-84.67 321.37 -85.27 320.93 -85.89 320.48 C-87.93 318.99 -89.97 317.5 -92 316 C-93.49 314.9 -94.98 313.81 -96.48 312.71 C-100.5 309.75 -104.53 306.79 -108.54 303.81 C-111.74 301.45 -114.94 299.1 -118.14 296.74 C-119.71 295.58 -121.28 294.42 -122.85 293.26 C-126.92 290.27 -130.99 287.27 -135.07 284.29 C-135.9 283.68 -136.74 283.06 -137.6 282.43 C-139.18 281.27 -140.75 280.12 -142.33 278.97 C-152.75 271.32 -162.24 263.09 -171.39 253.98 C-172.54 252.84 -173.69 251.69 -174.85 250.55 C-177.24 248.17 -179.64 245.79 -182.03 243.4 C-185.09 240.34 -188.17 237.29 -191.26 234.25 C-193.64 231.9 -196.01 229.54 -198.37 227.18 C-199.5 226.05 -200.64 224.93 -201.78 223.81 C-203.37 222.25 -204.93 220.68 -206.5 219.1 C-207.39 218.21 -208.29 217.32 -209.21 216.4 C-211 214 -211 214 -210.84 211.8 C-209.93 209.85 -208.93 208.09 -207.73 206.3 C-207.26 205.6 -206.79 204.89 -206.31 204.16 C-205.79 203.41 -205.28 202.65 -204.75 201.88 C-203.95 200.69 -203.95 200.69 -203.13 199.48 C-193.94 185.93 -184.27 172.76 -174 160 C-173.49 159.36 -172.98 158.73 -172.45 158.07 C-161.88 144.9 -151.02 132.04 -139.52 119.66 C-138.41 118.45 -137.33 117.23 -136.25 116 C-129.37 108.2 -122.03 100.87 -114.66 93.53 C-112.44 91.31 -110.21 89.08 -107.99 86.86 C-106.56 85.42 -105.12 83.99 -103.68 82.55 C-103.03 81.9 -102.38 81.24 -101.71 80.57 C-97.85 76.73 -93.88 73.07 -89.75 69.52 C-87.35 67.44 -85.02 65.28 -82.69 63.12 C-78.28 59.11 -73.76 55.27 -69.12 51.53 C-66.79 49.65 -64.49 47.74 -62.2 45.82 C-52.53 37.73 -42.6 30.11 -32.39 22.73 C-30 21 -27.61 19.26 -25.22 17.51 C-16.94 11.48 -8.6 5.58 0 0 Z " fill="#8B54C7" transform="translate(754,486)"/>
<path d="M0 0 C3.12 0.61 5.15 1.6 7.7 3.48 C8.4 4 9.11 4.52 9.84 5.05 C10.59 5.61 11.35 6.17 12.12 6.75 C13.75 7.94 15.38 9.14 17.01 10.33 C17.84 10.94 18.67 11.55 19.52 12.18 C23.33 14.98 27.17 17.74 31 20.5 C32.5 21.58 34 22.67 35.5 23.75 C36.24 24.29 36.99 24.82 37.75 25.38 C40 27 42.25 28.62 44.5 30.25 C45.24 30.79 45.99 31.32 46.75 31.88 C48.25 32.96 49.74 34.04 51.24 35.12 C55.06 37.88 58.88 40.64 62.71 43.39 C63.49 43.95 64.27 44.52 65.08 45.1 C66.54 46.15 68 47.2 69.46 48.25 C70.88 49.27 72.29 50.3 73.7 51.33 C75.26 52.47 76.85 53.57 78.46 54.65 C89.43 62.32 98.51 72.14 107.89 81.62 C109.79 83.55 111.7 85.46 113.62 87.38 C115.93 89.7 118.24 92.02 120.55 94.35 C121.4 95.2 122.24 96.05 123.11 96.92 C126.84 100.69 130.52 104.49 134.09 108.42 C134.65 109.04 135.22 109.66 135.8 110.3 C137 112 137 112 137 115 C136.1 116.71 136.1 116.71 134.83 118.6 C134.36 119.31 133.88 120.02 133.39 120.75 C132.87 121.51 132.35 122.28 131.81 123.06 C131.27 123.86 130.74 124.65 130.18 125.47 C120.96 139.03 111.28 152.23 101 165 C100.49 165.64 99.98 166.27 99.45 166.93 C89.24 179.66 78.78 192.13 67.67 204.09 C65.69 206.25 63.76 208.43 61.85 210.66 C57.98 215.09 53.89 219.26 49.72 223.41 C48.95 224.18 48.18 224.95 47.39 225.75 C45.77 227.37 44.15 228.98 42.53 230.6 C40.07 233.06 37.61 235.52 35.16 237.98 C33.58 239.56 31.99 241.14 30.41 242.72 C29.69 243.45 28.96 244.18 28.22 244.92 C24.18 248.94 20.05 252.79 15.73 256.51 C13.33 258.58 11.01 260.73 8.69 262.88 C3.29 267.8 -2.31 272.41 -8 277 C-9.18 277.97 -10.37 278.95 -11.55 279.93 C-26.87 292.55 -42.78 304.39 -59.1 315.68 C-60.94 316.96 -62.76 318.25 -64.58 319.55 C-65.65 320.3 -66.71 321.04 -67.81 321.81 C-69.18 322.78 -69.18 322.78 -70.58 323.77 C-73 325 -73 325 -74.84 324.87 C-77.91 323.64 -79.69 321.71 -82.04 319.38 C-82.53 318.9 -83.01 318.42 -83.52 317.93 C-85.13 316.33 -86.74 314.73 -88.34 313.12 C-89.47 312 -90.61 310.88 -91.74 309.75 C-94.12 307.39 -96.49 305.02 -98.86 302.64 C-101.26 300.23 -103.68 297.83 -106.1 295.44 C-130.96 270.91 -130.96 270.91 -139.94 256.65 C-141.48 254.25 -143.17 251.96 -144.88 249.68 C-145.42 248.95 -145.97 248.22 -146.52 247.46 C-147.05 246.75 -147.58 246.04 -148.12 245.31 C-152.55 239.34 -156.94 233.34 -161.24 227.28 C-164.08 223.28 -166.94 219.3 -169.82 215.33 C-170.93 213.79 -172.04 212.25 -173.15 210.7 C-175.77 207.07 -178.41 203.44 -181.09 199.85 C-181.56 199.21 -182.03 198.57 -182.52 197.9 C-183.4 196.71 -184.29 195.51 -185.19 194.33 C-186.37 192.72 -186.37 192.72 -188 190 C-186.6 185.79 -183.58 184.65 -179.94 182.5 C-158.84 169.66 -138.93 154.85 -120 139 C-119.39 138.49 -118.79 137.98 -118.16 137.46 C-116.37 135.96 -114.59 134.45 -112.81 132.94 C-112.32 132.52 -111.82 132.09 -111.31 131.66 C-100.57 122.44 -90.43 112.59 -80.44 102.57 C-78.61 100.73 -76.77 98.9 -74.93 97.07 C-69.08 91.22 -63.33 85.34 -58 79 C-57.03 77.88 -56.05 76.76 -55.08 75.65 C-48.13 67.63 -41.43 59.45 -35 51 C-34.48 50.31 -33.95 49.63 -33.42 48.92 C-21.48 33.17 -10.39 16.81 0 0 Z " fill="#8C54C7" transform="translate(1634,1390)"/>
<path d="M0 0 C44.32 -1.93 86.8 0.18 130.62 7.38 C131.7 7.55 132.77 7.73 133.88 7.91 C141.04 9.08 148.2 10.29 155.35 11.52 C156.75 11.76 156.75 11.76 158.17 12.01 C160.77 12.46 163.37 12.93 165.97 13.4 C166.73 13.53 167.49 13.66 168.28 13.8 C171.81 14.45 174.9 15.14 178 17 C177.81 17.83 177.63 18.65 177.44 19.51 C168.8 58.25 162.9 97.24 162 137 C161.97 138.2 161.97 138.2 161.93 139.43 C160.77 186.76 167.82 233.78 178.53 279.74 C179 282 179 282 179 284 C176.53 284.4 174.06 284.8 171.58 285.19 C169.36 285.55 167.13 285.91 164.9 286.27 C158.58 287.29 152.27 288.3 145.95 289.29 C134.67 291.07 123.41 292.84 112.23 295.16 C75.61 302.5 38.17 300.66 1 300 C-2.14 285.51 -4.99 271.05 -7.12 256.38 C-7.25 255.52 -7.38 254.67 -7.51 253.79 C-19.1 174.8 -16.87 95.45 -3.59 16.85 C-3.46 16.07 -3.33 15.29 -3.19 14.49 C-2.35 9.59 -1.26 4.81 0 0 Z " fill="#8C54C7" transform="translate(437,953)"/>
<path d="M0 0 C3.83 20.15 7.39 40.25 9.81 60.62 C9.91 61.44 10.01 62.25 10.11 63.08 C13.37 90.17 14.38 117.18 14.32 144.43 C14.31 146.91 14.31 149.4 14.31 151.88 C14.27 175.29 14 198.57 11.25 221.84 C10.99 224.11 10.73 226.37 10.48 228.63 C10.3 230.23 10.12 231.83 9.93 233.42 C9.86 234.11 9.78 234.79 9.7 235.5 C7.86 251.16 5.24 266.68 2.33 282.18 C2 283.93 1.68 285.67 1.35 287.42 C0.57 291.61 -0.21 295.81 -1 300 C-12 300.48 -22.99 300.77 -34 300.94 C-35.27 300.96 -35.27 300.96 -36.56 300.98 C-68.78 301.4 -99.87 297.82 -131.62 292.56 C-132.7 292.39 -133.77 292.21 -134.88 292.03 C-145.59 290.25 -156.29 288.41 -166.97 286.49 C-167.73 286.35 -168.49 286.22 -169.28 286.08 C-172.55 285.48 -175.79 284.87 -179 284 C-177.86 276.72 -176.51 269.52 -174.94 262.31 C-171.2 244.98 -168.24 227.59 -166 210 C-165.87 209.01 -165.87 209.01 -165.74 207.99 C-160.7 167.86 -160.87 126.11 -166 86 C-166.08 85.32 -166.17 84.64 -166.26 83.94 C-168.55 65.52 -171.73 47.38 -175.76 29.27 C-175.91 28.6 -176.06 27.93 -176.21 27.24 C-176.62 25.44 -177.03 23.63 -177.44 21.83 C-178 19 -178 19 -178 16 C-171.71 14.93 -165.43 13.86 -159.13 12.85 C-150.03 11.38 -140.97 9.82 -131.92 8.06 C-87.75 -0.45 -44.87 -1.17 0 0 Z " fill="#8C54C7" transform="translate(1878,953)"/>
<path d="M0 0 C1.25 0.15 2.5 0.3 3.78 0.46 C4.49 0.54 5.19 0.63 5.91 0.72 C8.96 1.13 11.95 1.79 14.95 2.45 C16.29 2.74 17.63 3.03 18.96 3.32 C20.01 3.55 20.01 3.55 21.08 3.78 C54.61 11 88.71 15.1 123 16 C124.33 16.04 124.33 16.04 125.69 16.07 C171.5 17.08 218.01 11.41 262.49 0.54 C265 0 265 0 268 0 C271.4 18.01 274.7 36.04 277.69 54.12 C277.84 55.03 277.99 55.94 278.14 56.88 C284.79 97.36 285.49 137.09 284 178 C249.32 184.68 249.32 184.68 233.19 186.69 C232.42 186.79 231.65 186.89 230.85 186.99 C219.09 188.49 207.31 189.73 195.5 190.75 C194.82 190.81 194.14 190.87 193.44 190.93 C174.14 192.58 154.81 193.21 135.44 193.19 C134.47 193.19 133.51 193.19 132.52 193.19 C82.84 193.1 33.68 187.87 -15 178 C-15.48 166.52 -15.77 155.05 -15.94 143.56 C-15.95 142.68 -15.96 141.8 -15.98 140.9 C-16.4 107.87 -12.86 76 -7.5 43.44 C-7.23 41.8 -7.23 41.8 -6.96 40.13 C-4.74 26.74 -2.42 13.36 0 0 Z " fill="#8C54C7" transform="translate(1023,1643)"/>
<path d="M0 0 C2.41 0.01 4.83 0.01 7.24 0.01 C30.34 0.05 53.31 0.39 76.28 3.06 C78.63 3.33 80.97 3.59 83.32 3.85 C142.94 10.54 142.94 10.54 152.5 15.32 C152.98 26.29 153.27 37.27 153.44 48.26 C153.45 49.1 153.46 49.94 153.47 50.81 C153.9 83.25 150.28 114.59 145.06 146.57 C144.88 147.66 144.71 148.75 144.52 149.87 C142.75 160.73 140.92 171.59 138.99 182.42 C138.85 183.2 138.72 183.98 138.57 184.78 C137.62 190.08 137.62 190.08 136.5 192.32 C128.86 191.67 121.47 190.12 113.98 188.54 C100.53 185.71 87.06 183.35 73.44 181.51 C72.72 181.41 72.01 181.31 71.28 181.21 C48.78 178.12 26.25 176.93 3.56 177.01 C2.42 177.01 1.28 177.01 0.1 177.01 C-19.58 177.06 -38.97 177.96 -58.5 180.32 C-60.29 180.53 -60.29 180.53 -62.11 180.74 C-78.1 182.66 -93.85 185.63 -109.6 188.94 C-110.32 189.09 -111.04 189.24 -111.77 189.4 C-113.72 189.8 -115.66 190.21 -117.6 190.63 C-122.22 191.45 -126.83 191.91 -131.5 192.32 C-134.12 177.84 -136.62 163.34 -139 148.82 C-139.18 147.73 -139.36 146.65 -139.54 145.53 C-144.8 113.35 -147.92 81.88 -147.44 49.26 C-147.43 48.38 -147.41 47.51 -147.4 46.61 C-147.24 36.17 -146.94 25.75 -146.5 15.32 C-137.05 12.89 -127.63 10.97 -118 9.38 C-117.23 9.25 -116.45 9.12 -115.66 8.99 C-103.83 7.04 -91.98 5.4 -80.06 4.07 C-79.39 3.99 -78.72 3.91 -78.02 3.84 C-72.85 3.25 -67.68 2.77 -62.5 2.32 C-61.51 2.23 -60.51 2.14 -59.48 2.05 C-39.64 0.37 -19.9 -0.05 0 0 Z " fill="#8B54C7" transform="translate(1154.501838684082,365.681941986084)"/>
<path d="M0 0 C3.63 3.27 6.01 7.03 8.5 11.19 C22.91 34.7 40.12 57.32 58.8 77.59 C60.67 79.63 62.49 81.7 64.3 83.79 C67.9 87.92 71.62 91.94 75.38 95.94 C76.03 96.63 76.69 97.33 77.36 98.05 C83.9 104.99 90.47 111.79 97.71 118 C100.06 120.06 102.35 122.17 104.63 124.31 C110.89 130.15 117.31 135.66 124 141 C125.13 141.92 126.26 142.84 127.39 143.77 C146.85 159.62 167.65 173.82 189 187 C187.73 189.66 186.34 192.07 184.64 194.48 C183.93 195.47 183.93 195.47 183.22 196.48 C182.71 197.19 182.21 197.9 181.69 198.62 C181.16 199.37 180.63 200.12 180.08 200.89 C174.64 208.54 169.14 216.14 163.64 223.74 C162.01 225.98 160.4 228.22 158.78 230.47 C152.58 239.08 146.33 247.66 140.02 256.19 C139.48 256.92 138.94 257.65 138.39 258.4 C137.87 259.1 137.35 259.8 136.81 260.52 C135.63 262.14 134.46 263.78 133.33 265.43 C128.03 273.02 121.96 279.53 115.46 286.05 C114.36 287.15 113.26 288.26 112.16 289.37 C109.88 291.67 107.6 293.96 105.31 296.25 C102.37 299.18 99.46 302.14 96.55 305.09 C94.3 307.38 92.04 309.65 89.77 311.91 C88.69 313 87.61 314.09 86.54 315.18 C85.05 316.7 83.54 318.2 82.03 319.7 C80.75 320.98 80.75 320.98 79.45 322.3 C77 324 77 324 74.4 323.9 C70.83 322.56 67.88 320.45 64.81 318.25 C64.12 317.76 63.43 317.28 62.72 316.78 C60.47 315.19 58.23 313.6 56 312 C54.86 311.19 54.86 311.19 53.71 310.37 C30.75 294.02 8.46 276.6 -12.27 257.48 C-14.43 255.52 -16.61 253.59 -18.82 251.67 C-22.99 248.04 -27.04 244.29 -31.06 240.5 C-31.79 239.81 -32.52 239.13 -33.27 238.42 C-52.42 220.28 -52.42 220.28 -60.07 211.21 C-62.32 208.63 -64.66 206.15 -67.01 203.66 C-72.48 197.87 -77.76 192.02 -82.74 185.79 C-84.87 183.16 -87.06 180.61 -89.28 178.07 C-95.75 170.65 -101.69 162.93 -107.51 155.01 C-108.96 153.06 -110.42 151.13 -111.89 149.2 C-120.37 138.1 -128.21 126.59 -136 115 C-130.83 108.77 -125.24 103.02 -119.55 97.27 C-118.79 96.51 -118.79 96.51 -118.03 95.74 C-115.36 93.05 -112.7 90.36 -110.03 87.68 C-107.86 85.49 -105.69 83.3 -103.54 81.1 C-91.67 69.02 -79.98 57.56 -65.77 48.18 C-63.38 46.58 -61.06 44.88 -58.75 43.16 C-58.05 42.64 -57.35 42.13 -56.63 41.59 C-55.95 41.09 -55.27 40.58 -54.56 40.06 C-52.97 38.89 -51.38 37.71 -49.79 36.54 C-49 35.95 -48.21 35.37 -47.39 34.77 C-43.43 31.84 -39.46 28.92 -35.5 26 C-30.61 22.4 -25.72 18.79 -20.83 15.18 C-19.98 14.56 -19.13 13.93 -18.25 13.28 C-16.64 12.09 -15.02 10.9 -13.4 9.71 C-8.96 6.43 -4.5 3.2 0 0 Z " fill="#8C54C7" transform="translate(680,1391)"/>
<path d="M0 0 C4.73 1.35 8.54 3.41 12.59 6.15 C13.2 6.56 13.82 6.97 14.45 7.39 C16.43 8.71 18.4 10.04 20.38 11.38 C21.74 12.29 23.1 13.2 24.46 14.12 C33.87 20.46 43.08 26.98 52 34 C52.9 34.7 53.79 35.39 54.71 36.11 C65.15 44.34 75.21 53.03 85 62 C85.51 62.46 86.01 62.92 86.53 63.39 C95.8 71.84 105 80.34 113.16 89.88 C115.35 92.41 117.61 94.86 119.88 97.31 C124.79 102.72 129.46 108.28 134 114 C134.52 114.65 135.04 115.31 135.58 115.98 C176 166.84 176 166.84 176 177 C174.63 178.21 174.63 178.21 172.7 179.58 C171.98 180.1 171.26 180.61 170.52 181.14 C169.73 181.69 168.94 182.24 168.12 182.81 C166.46 184 164.8 185.18 163.13 186.36 C162.28 186.97 161.42 187.57 160.54 188.2 C156.68 190.94 152.84 193.72 149 196.5 C147.5 197.58 146 198.67 144.5 199.75 C143.39 200.55 143.39 200.55 142.25 201.38 C117.5 219.25 117.5 219.25 115.25 220.87 C113.75 221.96 112.25 223.04 110.75 224.13 C107.01 226.83 103.28 229.52 99.54 232.21 C91.74 237.83 83.98 243.48 76.25 249.19 C70.49 253.44 64.74 257.68 58.94 261.88 C58.36 262.3 57.78 262.72 57.19 263.16 C53.23 266 53.23 266 51 266 C50.2 264.47 50.2 264.47 49.38 262.91 C39.59 244.63 28.16 227.04 15 211 C14.57 210.47 14.14 209.95 13.69 209.41 C0.97 193.96 -12.55 178.61 -28.28 166.16 C-31.1 163.92 -33.83 161.59 -36.56 159.25 C-48.37 149.42 -60.91 140.74 -74.2 133.05 C-77.31 131.23 -80.37 129.33 -83.44 127.44 C-85.04 126.45 -85.04 126.45 -86.68 125.43 C-87.83 124.72 -87.83 124.72 -89 124 C-86.04 118.59 -82.71 113.65 -79.06 108.69 C-77.9 107.09 -76.73 105.48 -75.56 103.88 C-74.97 103.07 -74.38 102.26 -73.77 101.42 C-71.55 98.38 -69.35 95.33 -67.16 92.28 C-62.09 85.23 -56.97 78.23 -51.81 71.25 C-47 64.73 -42.24 58.18 -37.55 51.57 C-32.97 45.14 -28.32 38.74 -23.69 32.34 C-21.99 29.99 -20.29 27.63 -18.6 25.27 C-12.48 16.78 -6.32 8.34 0 0 Z " fill="#9553C7" transform="translate(1403,681)"/>
<path d="M0 0 C1.33 1.37 1.33 1.37 2.68 3.3 C3.44 4.38 3.44 4.38 4.22 5.48 C4.77 6.27 5.31 7.06 5.88 7.88 C7.05 9.54 8.22 11.2 9.4 12.87 C10 13.72 10.6 14.58 11.21 15.46 C13.94 19.33 16.72 23.17 19.5 27 C20.58 28.5 21.67 30 22.75 31.5 C23.55 32.61 23.55 32.61 24.38 33.75 C42.25 58.5 42.25 58.5 43.87 60.75 C44.96 62.25 46.04 63.75 47.13 65.25 C49.83 68.99 52.52 72.72 55.21 76.46 C61.41 85.06 67.65 93.61 73.95 102.13 C79.04 109.03 84.04 116 89 123 C86.44 125.93 83.53 127.47 80.12 129.31 C61.49 139.68 43.01 152.18 27.41 166.77 C25.43 168.6 23.42 170.36 21.37 172.12 C16.22 176.61 11.4 181.42 6.56 186.25 C5.67 187.13 4.78 188.01 3.87 188.91 C-2.2 194.96 -7.68 201.3 -13 208 C-13.91 209.1 -14.81 210.2 -15.72 211.29 C-29.35 228.15 -41.3 246.61 -51 266 C-56.28 264.36 -60.27 261.03 -64.62 257.75 C-66.34 256.47 -68.05 255.2 -69.76 253.92 C-70.63 253.27 -71.5 252.62 -72.4 251.94 C-76.42 248.94 -80.46 245.97 -84.5 243 C-86.08 241.83 -87.67 240.67 -89.25 239.5 C-90.03 238.92 -90.82 238.35 -91.62 237.75 C-106.67 226.67 -121.71 215.58 -136.75 204.5 C-137.93 203.63 -137.93 203.63 -139.13 202.75 C-140.7 201.59 -142.27 200.43 -143.84 199.27 C-147.97 196.23 -152.11 193.19 -156.24 190.15 C-157.1 189.52 -157.96 188.89 -158.85 188.23 C-160.49 187.03 -162.13 185.82 -163.77 184.62 C-167.58 181.82 -171.34 178.99 -175 176 C-174.44 172.46 -173.59 169.93 -171.66 166.92 C-170.94 165.78 -170.94 165.78 -170.21 164.62 C-169.68 163.82 -169.16 163.01 -168.62 162.19 C-168.08 161.34 -167.54 160.5 -166.98 159.63 C-165.33 157.08 -163.67 154.54 -162 152 C-161.31 150.96 -161.31 150.96 -160.61 149.89 C-147.67 130.32 -133.09 111.87 -117.3 94.54 C-115.85 92.94 -114.41 91.33 -112.98 89.72 C-107.33 83.37 -101.46 77.3 -95.44 71.31 C-94.54 70.41 -93.65 69.52 -92.73 68.59 C-87.65 63.52 -82.46 58.66 -77 54 C-75.92 53.05 -74.83 52.1 -73.75 51.15 C-64.81 43.35 -55.52 36.09 -46 29 C-44.93 28.2 -44.93 28.2 -43.84 27.39 C-32.29 18.77 -20.31 10.93 -8.07 3.31 C-2.82 0 -2.82 0 0 0 Z " fill="#9553C7" transform="translate(912,681)"/>
<path d="M0 0 C4.99 0.58 9.68 1.66 14.52 2.97 C25.54 5.92 36.56 8.08 47.81 9.81 C48.49 9.92 49.17 10.02 49.86 10.13 C97.39 17.43 146.18 14.17 192.35 0.66 C195 0 195 0 199 0 C199.7 4.47 200.4 8.95 201.1 13.42 C201.36 15.09 201.62 16.75 201.88 18.41 C203.47 28.55 205.06 38.69 206.65 48.82 C207.25 52.64 207.84 56.46 208.44 60.29 C208.59 61.24 208.74 62.2 208.89 63.18 C210.71 74.78 212.53 86.37 214.36 97.96 C215.18 103.2 216 108.43 216.83 113.67 C217.48 117.82 218.13 121.96 218.79 126.11 C219.28 129.25 219.78 132.39 220.27 135.53 C220.45 136.64 220.62 137.76 220.81 138.91 C221.05 140.43 221.05 140.43 221.29 141.99 C221.43 142.87 221.57 143.74 221.71 144.65 C222 147 222 147 222 151 C211.82 154.1 201.63 156.49 191.19 158.5 C190.42 158.65 189.65 158.8 188.86 158.95 C120.03 172.25 45.78 171.09 -22 152 C-22.33 151.67 -22.66 151.34 -23 151 C-22.81 142.35 -21.31 133.73 -19.97 125.2 C-19.77 123.86 -19.56 122.53 -19.36 121.19 C-18.81 117.6 -18.25 114.01 -17.69 110.42 C-17.11 106.65 -16.52 102.88 -15.94 99.11 C-14.97 92.79 -13.99 86.47 -13.01 80.15 C-11.87 72.85 -10.74 65.55 -9.62 58.24 C-8.53 51.2 -7.44 44.16 -6.35 37.11 C-5.89 34.12 -5.43 31.13 -4.96 28.14 C-4.42 24.62 -3.88 21.11 -3.33 17.59 C-3.03 15.68 -2.74 13.78 -2.45 11.87 C-2.27 10.74 -2.09 9.61 -1.91 8.44 C-1.76 7.46 -1.61 6.47 -1.45 5.46 C-1 3 -1 3 0 0 Z " fill="#9653C7" transform="translate(1058,1421)"/>
<path d="M0 0 C45.46 -0.76 90.86 4.25 134.81 16.06 C133.23 31.47 130.76 46.75 128.37 62.05 C127.78 65.78 127.2 69.52 126.62 73.26 C125.52 80.31 124.42 87.36 123.31 94.41 C122.05 102.45 120.8 110.49 119.55 118.53 C116.97 135.04 114.39 151.55 111.81 168.06 C110.74 167.79 109.66 167.52 108.56 167.24 C107.12 166.88 105.69 166.52 104.25 166.16 C103.55 165.98 102.85 165.81 102.12 165.62 C41.43 150.4 -21.86 148.97 -82.15 167.18 C-85.19 168.06 -85.19 168.06 -87.19 168.06 C-90.07 153.65 -92.28 139.14 -94.53 124.62 C-94.86 122.51 -95.19 120.4 -95.52 118.29 C-96.67 110.9 -97.82 103.51 -98.96 96.12 C-100.03 89.26 -101.1 82.4 -102.17 75.54 C-103.09 69.62 -104.01 63.7 -104.93 57.78 C-105.48 54.25 -106.03 50.73 -106.58 47.2 C-107.19 43.28 -107.8 39.36 -108.4 35.44 C-108.58 34.29 -108.77 33.13 -108.96 31.94 C-109.77 26.59 -110.41 21.48 -110.19 16.06 C-74.17 6.89 -37.23 0.72 0 0 Z " fill="#9553C7" transform="translate(1145.19091796875,612.93798828125)"/>
<path d="M0 0 C28.39 4.05 56.72 8.53 85.05 13.01 C90.99 13.95 96.92 14.89 102.85 15.82 C108.64 16.73 114.42 17.65 120.2 18.56 C122.63 18.95 125.07 19.33 127.5 19.71 C130.88 20.25 134.25 20.78 137.62 21.31 C138.62 21.47 139.62 21.63 140.65 21.79 C141.56 21.93 142.48 22.08 143.42 22.23 C144.61 22.42 144.61 22.42 145.82 22.61 C147.91 22.98 149.95 23.46 152 24 C151.65 25.31 151.65 25.31 151.3 26.66 C144.54 52.95 138.92 79.85 138.8 107.1 C138.79 108.63 138.79 108.63 138.78 110.2 C138.46 141.23 138.46 141.23 142 172 C142.32 173.77 142.32 173.77 142.65 175.57 C145.19 189.14 148.16 202.55 152.12 215.79 C153 219 153 219 153 222 C123.93 226.93 94.81 231.58 65.69 236.2 C59.75 237.14 53.82 238.09 47.88 239.03 C42.1 239.96 36.32 240.87 30.54 241.79 C28.1 242.18 25.66 242.56 23.22 242.96 C19.86 243.5 16.49 244.03 13.12 244.56 C12.12 244.72 11.12 244.88 10.08 245.05 C9.17 245.19 8.26 245.33 7.33 245.48 C6.14 245.67 6.14 245.67 4.93 245.86 C3 246 3 246 1 245 C0.23 242.7 0.23 242.7 -0.52 239.61 C-0.79 238.44 -1.07 237.28 -1.36 236.08 C-1.65 234.79 -1.95 233.51 -2.25 232.19 C-2.4 231.53 -2.55 230.87 -2.71 230.18 C-15.23 175.43 -19.3 118.83 -12 63 C-11.92 62.35 -11.83 61.69 -11.74 61.02 C-9.04 40.38 -4.8 20.24 0 0 Z " fill="#9653C7" transform="translate(685,980)"/>
<path d="M0 0 C0.9 2.53 0.9 2.53 1.65 5.94 C1.93 7.21 2.21 8.48 2.5 9.79 C2.79 11.19 3.08 12.6 3.38 14 C3.53 14.71 3.68 15.42 3.83 16.15 C8.65 38.82 12.28 61.88 14 85 C14.06 85.71 14.11 86.42 14.17 87.15 C17.38 128.99 13.89 171.11 6.06 212.25 C5.72 214.07 5.72 214.07 5.37 215.92 C3.43 225.77 0.78 235.36 -2 245 C-36.93 239.65 -71.85 234.27 -106.76 228.81 C-110.51 228.23 -114.26 227.64 -118 227.06 C-122.45 226.37 -126.9 225.68 -131.34 224.98 C-132.99 224.72 -134.64 224.46 -136.29 224.21 C-138.55 223.86 -140.81 223.5 -143.07 223.15 C-144.34 222.95 -145.62 222.75 -146.93 222.55 C-150 222 -150 222 -153 221 C-152.39 215.41 -151.05 210.13 -149.63 204.7 C-145.83 190.23 -142.97 175.83 -141 161 C-140.88 160.18 -140.77 159.36 -140.65 158.52 C-134.66 115.83 -139.5 70.8 -151.08 29.54 C-152 26 -152 26 -152 23 C-137.28 20.07 -122.45 17.77 -107.62 15.42 C-105.43 15.08 -103.25 14.73 -101.06 14.38 C-94.2 13.29 -87.34 12.2 -80.48 11.12 C-72.59 9.87 -64.69 8.61 -56.8 7.35 C-50.67 6.38 -44.54 5.4 -38.41 4.43 C-34.76 3.86 -31.11 3.28 -27.46 2.69 C-23.41 2.04 -19.35 1.4 -15.3 0.77 C-14.09 0.57 -12.88 0.38 -11.64 0.17 C-10.54 0 -9.44 -0.17 -8.3 -0.34 C-7.35 -0.5 -6.39 -0.65 -5.4 -0.8 C-3 -1 -3 -1 0 0 Z " fill="#9653C7" transform="translate(1630,981)"/>
<path d="M0 0 C5.08 1.63 8.95 4.68 13.19 7.81 C14.81 9 16.42 10.18 18.04 11.36 C19.28 12.27 19.28 12.27 20.54 13.2 C24.35 15.99 28.17 18.74 32 21.5 C33.5 22.58 35 23.67 36.5 24.75 C37.24 25.29 37.99 25.82 38.75 26.38 C53 36.67 67.25 46.96 81.5 57.25 C82.24 57.79 82.99 58.32 83.75 58.88 C85.25 59.96 86.74 61.04 88.24 62.12 C92.06 64.88 95.88 67.64 99.71 70.39 C108.21 76.51 116.66 82.67 125 89 C123.29 94.04 120.47 98.3 117.62 102.75 C117.09 103.59 116.56 104.42 116.02 105.28 C95.96 136.57 71.95 165.08 45.75 191.38 C44.91 192.22 44.07 193.06 43.21 193.93 C38.3 198.83 33.27 203.49 28 208 C26.8 209.06 25.59 210.12 24.39 211.18 C16.49 218.11 8.46 224.75 0 231 C-0.68 231.51 -1.37 232.01 -2.07 232.53 C-11.62 239.55 -21.27 246.4 -31.22 252.84 C-32.43 253.63 -33.64 254.42 -34.84 255.22 C-36.62 256.39 -38.4 257.54 -40.19 258.69 C-41.72 259.68 -41.72 259.68 -43.29 260.7 C-46 262 -46 262 -48.08 262.05 C-51.02 260.44 -52.51 258.18 -54.5 255.5 C-55.15 254.64 -55.15 254.64 -55.8 253.76 C-60.27 247.74 -64.57 241.59 -68.87 235.45 C-77.06 223.78 -85.51 212.29 -93.98 200.83 C-98.19 195.12 -102.34 189.36 -106.45 183.57 C-111.02 177.15 -115.66 170.77 -120.28 164.38 C-122.06 161.92 -123.84 159.45 -125.61 156.99 C-126.5 155.77 -126.5 155.77 -127.4 154.52 C-128.52 152.96 -129.65 151.4 -130.77 149.84 C-131.54 148.78 -131.54 148.78 -132.32 147.7 C-132.77 147.08 -133.21 146.46 -133.67 145.82 C-134.64 144.49 -135.65 143.18 -136.67 141.89 C-138 140 -138 140 -138 138 C-136.54 136.95 -136.54 136.95 -134.48 135.82 C-133.71 135.39 -132.95 134.96 -132.16 134.52 C-131.32 134.06 -130.49 133.6 -129.62 133.12 C-106.3 119.91 -83.23 103.98 -64.57 84.57 C-62.79 82.79 -60.92 81.19 -59 79.56 C-55.64 76.66 -52.75 73.58 -49.89 70.2 C-47.79 67.75 -45.58 65.42 -43.38 63.06 C-26.22 44.22 -12.07 22.38 0 0 Z " fill="#9653C7" transform="translate(1452,1258)"/>
<path d="M0 0 C3.51 1.17 3.7 1.72 5.42 4.83 C5.86 5.62 6.31 6.42 6.77 7.23 C7.47 8.51 7.47 8.51 8.19 9.81 C9.18 11.57 10.18 13.33 11.18 15.08 C11.91 16.36 11.91 16.36 12.65 17.67 C22.45 34.62 34.91 50.46 48 65 C48.5 65.56 49.01 66.12 49.52 66.69 C58.51 76.64 67.69 86.41 78 95 C78.53 95.45 79.07 95.89 79.62 96.35 C98.83 112.41 119.07 125.94 141 138 C138.06 143.38 134.75 148.31 131.12 153.25 C130.28 154.41 130.28 154.41 129.42 155.6 C124.65 162.14 119.84 168.66 115.02 175.17 C110.81 180.88 106.66 186.64 102.55 192.43 C99.61 196.55 96.65 200.65 93.69 204.75 C93.14 205.51 92.59 206.27 92.03 207.05 C90.91 208.59 89.79 210.14 88.67 211.69 C86.49 214.71 84.3 217.73 82.12 220.76 C81.04 222.25 79.96 223.74 78.88 225.24 C76.12 229.06 73.36 232.88 70.61 236.71 C64.49 245.21 58.33 253.66 52 262 C48.48 261.44 45.95 260.61 42.95 258.7 C42.2 258.22 41.45 257.75 40.67 257.26 C39.87 256.74 39.07 256.22 38.25 255.69 C37.41 255.15 36.57 254.61 35.71 254.06 C27.3 248.62 19.1 242.9 11 237 C10.31 236.5 9.63 236 8.92 235.48 C0.83 229.57 -7.04 223.47 -14.62 216.91 C-16.76 215.06 -18.92 213.23 -21.09 211.42 C-30.07 203.92 -38.42 195.89 -46.66 187.6 C-48.82 185.43 -50.99 183.27 -53.16 181.11 C-59.87 174.41 -66.37 167.73 -72.22 160.26 C-74.04 157.95 -75.96 155.79 -77.94 153.62 C-91.8 138.16 -103.75 120.52 -114.77 102.95 C-115.63 101.58 -116.52 100.22 -117.42 98.87 C-117.88 98.17 -118.34 97.48 -118.81 96.76 C-119.44 95.82 -119.44 95.82 -120.08 94.86 C-121 93 -121 93 -121 89 C-119.09 87.34 -117.29 86 -115.19 84.62 C-113.89 83.74 -112.6 82.85 -111.3 81.96 C-110.26 81.25 -110.26 81.25 -109.19 80.52 C-105.34 77.85 -101.58 75.04 -97.81 72.25 C-96.18 71.05 -94.55 69.84 -92.93 68.64 C-92.11 68.04 -91.3 67.44 -90.46 66.81 C-86.47 63.87 -82.49 60.94 -78.5 58 C-76.92 56.83 -75.33 55.67 -73.75 54.5 C-45.25 33.5 -45.25 33.5 -42.87 31.75 C-41.3 30.59 -39.72 29.42 -38.14 28.26 C-34.1 25.28 -30.05 22.3 -26 19.32 C-25.18 18.72 -24.36 18.12 -23.52 17.49 C-21.9 16.3 -20.28 15.12 -18.67 13.93 C-15.16 11.36 -11.67 8.77 -8.25 6.09 C-7.69 5.65 -7.13 5.22 -6.56 4.78 C-5.12 3.65 -3.68 2.52 -2.25 1.38 C-1.51 0.92 -0.76 0.47 0 0 Z " fill="#9653C7" transform="translate(860,1258)"/>
</svg>
